<svg width="745" height="886" viewBox="0 0 745 886" fill="none" xmlns="http://www.w3.org/2000/svg"><path d="M734.45 580.74C709.6 464.02 641.77 367.75 562.67 338.8c-79.45-29.35-169.79 8.27-262.5 35.64-92.7 27.38-188.15 44.11-245.32 114.12C-2.7 558.9-22.01 683.28 31.41 742.38c53.03 59.44 178.78 53.6 305.98 81.5 127.58 27.55 256.65 87.35 330.23 49.04 73.58-38.31 91.7-175.47 66.83-292.18z" fill="#FA7B6A"/><path fill-rule="evenodd" clip-rule="evenodd" d="M346.62 120.78c.33 0 .6.26.6.6 0 18.13 3.59 33.06 14.77 47.44 11.6 14.92 16.9 29.17 16.9 47.67 0 10.5-2.5 15.87-5.34 21.95-.5 1.09-1.03 2.2-1.55 3.38-3.38 7.64-6.78 17.9-6.78 40.53v.03c-.8 13.96-5.2 24.46-8.28 31.85-.48 1.15-.93 2.22-1.33 3.22a30.93 30.93 0 00-1.59 4.77c-.28 1.33-.26 2.33.06 3.09.3.72.94 1.32 2.15 1.76.53.2 1.16.35 1.91.48l.22-.48c1.14-2.26 2.78-3.02 4.26-2.79.71.1 1.34.44 1.81.88.46.43.8 1 .84 1.63.05.66-.27 1.28-.93 1.69-.62.38-1.54.58-2.74.55a30.6 30.6 0 01-2.67-.17c-.69 2.08-1.08 5.29-.82 10.1.2 3.8 1.7 7.74 3.7 11.79 1 2.02 2.11 4.05 3.24 6.1l.18.32c1.06 1.94 2.14 3.88 3.12 5.83 2.07 4.1 3.77 8.25 4.16 12.36.4 4.15-.54 8.23-3.7 12.17a.6.6 0 01-.93-.75 15.03 15.03 0 003.43-11.3c-.36-3.89-1.98-7.87-4.03-11.94-.97-1.93-2.04-3.86-3.1-5.8l-.18-.32a156.6 156.6 0 01-3.27-6.14c-2.01-4.08-3.6-8.2-3.82-12.26-.26-4.72.1-8.04.81-10.33-.72-.13-1.35-.29-1.9-.5-1.42-.51-2.37-1.3-2.84-2.41-.47-1.1-.43-2.38-.13-3.81.3-1.44.9-3.1 1.65-4.97.4-1.01.85-2.1 1.34-3.25 3.08-7.38 7.4-17.69 8.18-31.42 0-22.76 3.43-33.19 6.88-41 .53-1.2 1.06-2.32 1.57-3.42 2.82-6.05 5.21-11.2 5.21-21.42 0-18.22-5.18-32.2-16.63-46.93C349.65 154.9 346 139.7 346 121.37c0-.33.27-.6.6-.6zm12.77 206.92c.67.07 1.41.11 2.24.13 1.1.02 1.74-.16 2.08-.37.31-.2.38-.4.37-.6a1.33 1.33 0 00-.47-.83c-.3-.28-.71-.5-1.17-.56-.85-.14-2.05.22-3 2.14l-.05.1zM377.83 153.3l1.13.22c4.61.9 7.26 2.39 8.49 3.99.62.8.88 1.66.82 2.46-.07.8-.46 1.5-1.05 1.98-1.18.98-3.08 1.12-4.84-.03-1.62-1.07-3.1-3.21-3.93-6.78l-.6.44c-.69.5-1.37 1.01-2.03 1.47-1.1.77-2.2 1.45-3.27 1.88a4.9 4.9 0 01-3.18.34c-1.05-.3-1.93-1.06-2.65-2.33a4.36 4.36 0 01-.28-2.19c.1-.62.4-1.12.85-1.5.84-.71 2.15-.92 3.48-.93 2.24-.01 5.01.56 7.06.98zm1.8 1.59c.79 3.37 2.13 5.18 3.4 6.02 1.39.91 2.7.71 3.42.12.36-.3.58-.7.62-1.16.04-.45-.1-1.02-.57-1.63-.9-1.17-2.95-2.47-6.87-3.35zm-2.24-.46l-.28.2c-.67.5-1.32.98-1.98 1.44-1.08.75-2.1 1.37-3.03 1.75-.94.38-1.73.48-2.4.3-.65-.19-1.3-.68-1.91-1.72-.2-.63-.23-1.1-.17-1.45.06-.34.21-.59.44-.78.5-.42 1.43-.64 2.71-.65 2.06-.01 4.6.5 6.62.91z" fill="#1C1C1C"/><path fill-rule="evenodd" clip-rule="evenodd" d="M344.95 126.58l1.05-.47c4.28-1.94 7.3-2.27 9.23-1.67.97.3 1.68.84 2.1 1.53.4.69.48 1.48.29 2.22-.4 1.48-1.87 2.7-3.97 2.78-1.93.07-4.38-.82-7.12-3.25l-.24.71c-.27.81-.53 1.62-.8 2.38a17.56 17.56 0 01-1.58 3.42 4.9 4.9 0 01-2.4 2.12c-1.02.37-2.18.25-3.5-.36a4.37 4.37 0 01-1.5-1.62 2.46 2.46 0 01-.18-1.72c.28-1.07 1.22-2 2.3-2.77 1.82-1.31 4.4-2.46 6.32-3.3zm2.39.26c2.6 2.28 4.74 2.98 6.27 2.93 1.65-.06 2.6-1 2.85-1.9.12-.44.06-.9-.17-1.3-.23-.38-.67-.76-1.42-.99-1.4-.43-3.83-.3-7.53 1.26zm-2.09.92l-.1.33c-.27.79-.52 1.56-.8 2.3a16.56 16.56 0 01-1.45 3.2 3.74 3.74 0 01-1.78 1.63c-.64.23-1.45.2-2.56-.3-.52-.4-.82-.76-.97-1.07-.15-.31-.17-.6-.1-.9.17-.63.8-1.35 1.84-2.1 1.66-1.2 4.03-2.25 5.92-3.1zM378.62 150.14c.33 0 .6.27.6.6 0 1.29-.39 3.51-.77 5.7l-.06.38c-.41 2.38-.8 4.65-.75 5.86.1 2.5.63 5 1.2 7.59l.1.52c.6 2.76 1.19 5.64 1.19 8.65 0 6.74-2.4 11.3-5 15.7l-.71 1.2c-2.39 4-4.8 8.03-5.77 13.73-1.5 8.75.86 15.76 3.52 23.68.62 1.86 1.26 3.77 1.88 5.76 3.2 10.46 5.48 22.98-.13 42.17-.87 2.97-1.89 5.38-2.79 7.52l-.64 1.52c-1.03 2.52-1.78 4.71-1.83 7.23-.05 2.95.93 6.28 1.88 9.52l.4 1.34c.52 1.8.98 3.55 1.16 5.13.19 1.56.1 3.04-.59 4.23-.13.23-.32.41-.51.56-.2.15-.43.3-.66.43l-.71.4-.07.02-.62.34a5.6 5.6 0 00-.52.32l-.06.05c.9.43 1.78.5 2.65.55l.4.03c.47.03 1 .1 1.44.3a1.94 1.94 0 011.08 1.29c.07.39.07.75-.03 1.08-.1.33-.3.59-.55.77-.46.33-1.08.4-1.51.46h-.1c-.46.07-.8.1-1.04.22-.11.05-.17.1-.2.16-.04.05-.08.15-.08.35 0 .88.49 1.87 1.3 3.13.2.34.44.7.69 1.07.64.97 1.36 2.05 1.98 3.23a14.4 14.4 0 011.73 5.81c.14 2.25-.28 4.78-1.64 7.68a.6.6 0 01-1.09-.5 14.39 14.39 0 001.53-7.1 13.2 13.2 0 00-1.6-5.33 34.58 34.58 0 00-1.88-3.07l-.74-1.15c-.8-1.24-1.48-2.5-1.48-3.77a1.64 1.64 0 01.96-1.59c.43-.2.97-.27 1.38-.32l.13-.01c.5-.07.8-.13.95-.24a.27.27 0 00.12-.16c.02-.08.04-.22 0-.46a.73.73 0 00-.41-.46c-.23-.1-.56-.16-1.04-.2l-.36-.02a7.87 7.87 0 01-3.16-.7 1.4 1.4 0 01-.67-.61.94.94 0 01.07-.93 2 2 0 01.52-.52c.2-.14.42-.28.65-.4.2-.13.42-.24.64-.36l.06-.03.68-.37c.21-.12.39-.23.52-.34.14-.1.2-.18.21-.2.5-.87.61-2.04.44-3.5a31.8 31.8 0 00-1.13-4.94l-.38-1.32c-.95-3.22-2-6.74-1.94-9.9.05-2.75.88-5.1 1.92-7.65l.65-1.56c.9-2.13 1.89-4.47 2.74-7.36 5.53-18.93 3.28-31.2.13-41.49-.6-1.93-1.22-3.8-1.84-5.63-2.67-7.94-5.14-15.29-3.59-24.36 1.01-5.93 3.53-10.14 5.91-14.13l.72-1.2c2.58-4.37 4.83-8.69 4.83-15.1 0-2.87-.56-5.63-1.16-8.4l-.11-.54c-.56-2.57-1.12-5.16-1.22-7.77-.05-1.38.36-3.8.76-6.11l.05-.3c.4-2.26.77-4.4.77-5.58 0-.33.27-.6.6-.6z" fill="#1C1C1C"/><path fill-rule="evenodd" clip-rule="evenodd" d="M421.33 102.06a.6.6 0 01.69.49c1.92 11.22 1.19 19.35-1.02 25.85s-5.88 11.31-9.74 15.9l-1.8 2.13c-3.3 3.86-6.58 7.72-9.2 12.5-3.07 5.64-5.2 12.58-5.2 22.3 0 3.93-1.19 7.36-2.96 10.74-1.3 2.47-2.92 4.94-4.66 7.57l-1.94 2.97c-4.88 7.6-10.1 17.08-11.55 32.25l-.01.07c-.39 1.74-.52 3.91-.56 6.33-.02 1.35-.01 2.75 0 4.17v3.48c-.01 2.6-.1 5.2-.45 7.55-.35 2.34-.95 4.47-2.02 6.13-3.3 5.1-6.33 6.77-8.53 7.83-.14.08-.28.14-.42.2-.88.43-1.5.73-1.94 1.15-.45.42-.74 1.01-.74 2.22 0 .47.23.86.7 1.28.32.3.7.55 1.12.84l.64.44a4.95 4.95 0 011.69 1.79c.39.81.4 1.77-.1 2.92a.6.6 0 01-.12.2c-.55.54-1.21 1.03-1.88 1.52l-.14.11c-.63.46-1.27.93-1.89 1.48a9.96 9.96 0 00-3.2 5.05c-1.33 4.83-.39 13.46 7.23 30.45a.6.6 0 11-1.1.5c-7.62-17.02-8.74-26-7.28-31.27a11.16 11.16 0 013.56-5.63c.66-.59 1.34-1.08 1.96-1.54l.15-.11c.64-.47 1.2-.89 1.65-1.34.34-.84.28-1.4.07-1.82a3.8 3.8 0 00-1.3-1.33l-.53-.37c-.45-.31-.95-.65-1.34-1a2.88 2.88 0 01-1.1-2.17c0-1.43.38-2.38 1.12-3.1.6-.56 1.4-.94 2.27-1.35l.4-.2c2.06-.99 4.9-2.54 8.04-7.4.94-1.45 1.5-3.4 1.84-5.66.33-2.26.43-4.8.44-7.38v-3.43c-.01-1.45-.02-2.88 0-4.23.04-2.41.17-4.68.58-6.53 1.48-15.41 6.8-25.06 11.73-32.74l1.98-3.03a89.84 89.84 0 004.56-7.43c1.73-3.28 2.82-6.5 2.82-10.18 0-9.92 2.19-17.05 5.36-22.87 2.68-4.9 6.06-8.86 9.35-12.73.6-.7 1.2-1.4 1.78-2.1 3.84-4.56 7.39-9.24 9.52-15.52 2.13-6.27 2.87-14.2.98-25.26a.6.6 0 01.49-.7z" fill="#1C1C1C"/><ellipse cx="428.16" cy="57.12" rx="38.12" ry="48.67" transform="rotate(9.24 428.16 57.12)" fill="#F6F6F1" stroke="#1C1C1C" stroke-width="1.2" stroke-linecap="round" stroke-linejoin="round"/><path d="M420.35 105.16c20.78 3.38 41.12-15.39 45.44-41.92.55-3.4.81-6.75.8-10.03-32.95 47.06-62.78 38.28-76.38 15.27 2.45 18.98 14.07 34.07 30.14 36.68z" fill="#FA7B6A"/><path d="M429.05 85.23c-3.53-.28-6.73-2.9-9.56-5.59-5.47-5.23-8.57-11.96-3.03-18.54 4.48-5.33 14.68-7.6 20.05-2.26 7.1 7.05-6.98 17.67-7.46 26.4zM466.04 45.15c-4.74 4.29-11.72 7.65-18.19 6.26-14.92-3.16-16.78-12.82-5.8-26.17 4.55-6.59 6.94-8.53 10-8.3 7.35 6.6 12.37 16.66 13.99 28.2zM398.18 29.86a49.64 49.64 0 0110.06-12.07c.07 0 .13-.02.2-.03 3.55-.46 17.82 7.04 13.9 16.86-.95 3.9-8.82 9.76-12.63 10.45-5.79 1.04-9.86-4.56-11.03-9.48a18.79 18.79 0 01-.5-5.73z" fill="#FA7B6A"/><ellipse cx="428.16" cy="57.12" rx="38.12" ry="48.67" transform="rotate(9.24 428.16 57.12)" stroke="#1C1C1C" stroke-width="1.2" stroke-linecap="round" stroke-linejoin="round"/><path d="M346.52 126.23c23.97-5.38 38.29-32.57 31.97-60.73-6.32-28.16-30.87-46.63-54.85-41.25-23.97 5.38-38.29 32.57-31.97 60.73 6.32 28.16 30.87 46.63 54.85 41.25z" fill="#F6DE05"/><path d="M378.5 65.5c6.3 28.16-8 55.35-31.98 60.73-19.04 4.27-38.44-6.5-48.79-25.2 11.44 9.92 29.92 23.13 44.53 12.18 3.94-2.96 3.59-11.33 3.17-21.15-.8-18.64-1.8-42.5 25.96-44.41a60.23 60.23 0 017.1 17.85z" fill="#FA7B6A"/><path fill-rule="evenodd" clip-rule="evenodd" d="M323.77 24.84c-23.56 5.28-37.78 32.08-31.51 60 6.26 27.93 30.56 46.09 54.13 40.8 23.56-5.28 37.78-32.08 31.52-60-6.27-27.94-30.57-46.1-54.14-40.8zM291.08 85.1c-6.37-28.4 8.05-55.98 32.43-61.44 24.38-5.47 49.2 13.3 55.57 41.7 6.37 28.4-8.05 55.97-32.43 61.44-24.38 5.47-49.2-13.31-55.57-41.7z" fill="#1C1C1C"/><path d="M374.29 60.18c13.6 3.56 13.1 20.5 17.28 31.11 6.62-8.36 31.25-34.36 42.83-14.01 12.75 22.4-40.8 90.77-61.24 73.66-17.77-14.87-34.28-99.98 1.13-90.76z" fill="#FA7B6A"/><path fill-rule="evenodd" clip-rule="evenodd" d="M367.18 142.1c2.06 3.7 4.22 6.6 6.36 8.39 4.8 4.02 11.66 3.11 19.3-1.21 7.61-4.3 15.77-11.89 22.92-20.73 7.14-8.84 13.25-18.9 16.77-28.12 1.76-4.61 2.87-9 3.14-12.9.28-3.9-.27-7.29-1.79-9.95-2.8-4.94-6.36-7-10.17-7.27-3.86-.28-8.1 1.25-12.28 3.72-8.34 4.95-16.1 13.47-19.4 17.63a.6.6 0 01-1.02-.15 68.84 68.84 0 01-2.7-9.4c-.7-3-1.43-6-2.41-8.82-2.07-5.93-5.25-10.83-11.77-12.53-4.31-1.13-7.77-.8-10.51.6-2.75 1.39-4.86 3.9-6.4 7.27-3.09 6.77-3.8 16.88-2.84 27.84a137.77 137.77 0 007.04 32.52 85.68 85.68 0 005.75 13.11zm-4.1-81.82c3.06-1.55 6.83-1.87 11.36-.69 7.08 1.86 10.46 7.22 12.59 13.3a92.8 92.8 0 012.57 9.42 78.29 78.29 0 002.16 7.79c3.63-4.44 11.06-12.35 19.06-17.1 4.26-2.52 8.76-4.2 12.98-3.89 4.27.31 8.15 2.64 11.13 7.87 1.67 2.94 2.23 6.59 1.94 10.64-.29 4.05-1.43 8.55-3.22 13.24-3.58 9.36-9.75 19.53-16.96 28.44-7.2 8.91-15.47 16.62-23.25 21.02-7.75 4.39-15.25 5.62-20.67 1.09-2.3-1.93-4.54-4.96-6.64-8.72a86.88 86.88 0 01-5.84-13.3 138.97 138.97 0 01-7.1-32.81c-.97-11.03-.28-21.4 2.94-28.45 1.61-3.54 3.88-6.3 6.94-7.85z" fill="#1C1C1C"/><path d="M373.68 104.27c1.3-14.96 12.9-9.88 13.75 7.39 8.68-11.73 25.06-14.35 16.88 2.84-8.94 14.21-21.88 34.27-28.47 8.98a49.02 49.02 0 01-2.16-19.2z" fill="#F6F6F1"/><path fill-rule="evenodd" clip-rule="evenodd" d="M376.7 97.1c-1.15 1.21-2.1 3.54-2.42 7.23a48.46 48.46 0 002.14 19c1.64 6.3 3.64 9.59 5.71 10.91 1.98 1.26 4.22.83 6.72-.93 2.5-1.75 5.12-4.74 7.68-8.21 2.55-3.46 5.02-7.35 7.25-10.9 2.02-4.24 2.45-7.12 1.98-8.9a3.07 3.07 0 00-1.24-1.85 4.17 4.17 0 00-2.33-.62c-1.92 0-4.42.82-7 2.42a26.76 26.76 0 00-7.27 6.77.6.6 0 01-1.09-.33 28.25 28.25 0 00-2.26-10.32c-1.2-2.6-2.7-4.26-4.1-4.95a3.23 3.23 0 00-1.99-.35 3.2 3.2 0 00-1.79 1.03zm11.22 12.96a28.2 28.2 0 00-2.26-9.2c-1.26-2.73-2.91-4.66-4.67-5.52a4.42 4.42 0 00-2.71-.45 4.4 4.4 0 00-2.46 1.38c-1.42 1.5-2.4 4.15-2.74 7.95a49.65 49.65 0 002.18 19.43c1.65 6.33 3.74 10.02 6.23 11.6 2.58 1.65 5.37.92 8.05-.96 2.67-1.87 5.38-4.98 7.96-8.48 2.59-3.5 5.08-7.44 7.32-11l.03-.06c2.06-4.33 2.65-7.55 2.07-9.75a4.27 4.27 0 00-1.73-2.54 5.36 5.36 0 00-3-.82c-2.23-.02-4.94.93-7.62 2.59a27.77 27.77 0 00-6.65 5.83z" fill="#F6F6F1"/><path d="M415.29 292.93c3.83.5 7.77-.07 11.3-1.62.26-.1.54-.26.64-.51.09-.23.02-.47-.05-.69l-2.04-7.2c-.09-.3-.18-.62-.43-.82-.22-.2-.53-.24-.82-.27-1.86-.2-4.99-.17-6.48 1.18-.54.5-.6 1.23-.64 1.92a25.64 25.64 0 01-1.48 8.01z" fill="#FA7B6A" stroke="#1C1C1C" stroke-width="1.2" stroke-miterlimit="10" stroke-linecap="round" stroke-linejoin="round"/><path d="M399.72 264.87c-7.85-6.18-7.16 13.16 3.29 9.85l-3.29-9.85z" fill="#F6F6F1"/><path fill-rule="evenodd" clip-rule="evenodd" d="M397.24 263.06c.87.08 1.82.52 2.85 1.33a.6.6 0 11-.74.95 4.52 4.52 0 00-2.23-1.1c-.52-.04-.92.13-1.24.45-.33.33-.59.87-.73 1.57-.15.7-.17 1.52-.05 2.38.23 1.72 1 3.49 2.28 4.62 1.25 1.1 3.03 1.66 5.45.9a.6.6 0 11.36 1.14c-2.8.88-5.02.26-6.6-1.14a8.83 8.83 0 01-2.68-5.36 8.37 8.37 0 01.06-2.78c.18-.84.51-1.62 1.06-2.17a2.64 2.64 0 012.2-.8z" fill="#1C1C1C"/><path d="M440.83 265c10.43-3.89 4.65 15.1-2.55 10.72l2.55-10.72z" fill="#F6F6F1"/><path fill-rule="evenodd" clip-rule="evenodd" d="M443.91 265.12a5.7 5.7 0 00-2.87.45.6.6 0 01-.42-1.13 6.88 6.88 0 013.49-.5c.98.16 1.73.65 2.22 1.37.97 1.38.95 3.48.41 5.4a10.17 10.17 0 01-3.19 5.1 5.13 5.13 0 01-2.6 1.14c-.97.11-1.98-.1-2.98-.72a.6.6 0 01.62-1.02c.8.48 1.55.63 2.23.55a3.94 3.94 0 001.99-.89 8.99 8.99 0 002.78-4.49c.5-1.8.42-3.44-.24-4.39a2.09 2.09 0 00-1.44-.87z" fill="#1C1C1C"/><path fill-rule="evenodd" clip-rule="evenodd" d="M442.91 267.45c-.05.02-.21.1-.37.46a.6.6 0 11-1.1-.47c.24-.56.62-.99 1.13-1.14.52-.16 1.03.02 1.4.31.73.59 1.15 1.75.9 3-.32 1.6-.8 3.1-2.03 4.36-.44.46-.91.75-1.4.82-.5.08-.96-.07-1.3-.35a2.14 2.14 0 01-.6-2.33c.4-1.1 1.1-1.56 1.77-1.61.31-.02.6.04.8.14.09.04.24.12.34.27.05.06.17.25.11.5a.63.63 0 01-.4.47.6.6 0 01-.67-.18.5.5 0 00-.08 0c-.13 0-.48.08-.75.82-.13.37 0 .8.24 1 .1.08.2.11.35.09.15-.03.4-.13.73-.47.99-1.02 1.41-2.24 1.72-3.76m-2.1 2.34h-.01zm1.31-4.27c.06-.02.16-.02.31.1zm.31.1c.32.26.65.94.48 1.83zM398.62 265.9c.34.13.67.37 1 .68a.6.6 0 01-.82.88c-.27-.26-.48-.4-.64-.46-.14-.06-.2-.04-.2-.04s-.06.03-.13.16c-.08.14-.16.35-.21.67-.34 2.08.61 3.55 1.59 4.12.5.29.94.31 1.23.2.27-.12.57-.41.67-1.15a.87.87 0 00-.19-.58c-.15-.22-.36-.4-.56-.5a.58.58 0 00-.26-.08.75.75 0 00-.04.34.6.6 0 01-1.2.04c-.02-.6.15-1.16.67-1.44.47-.25 1-.12 1.36.06.4.2.76.51 1.03.9.26.38.45.88.38 1.42-.14 1.03-.63 1.78-1.4 2.1-.74.3-1.58.14-2.3-.28-1.43-.83-2.58-2.8-2.17-5.35.07-.4.18-.76.35-1.06.17-.3.42-.57.77-.7.36-.13.74-.08 1.07.06zm1.5 3.88z" fill="#1C1C1C"/><path d="M403.57 253.87c-11.37 23.77 13.2 44.7 30.7 26.59 22.24-26.36-16.2-52.17-30.7-26.6z" fill="#F6F6F1" stroke="#1C1C1C" stroke-width="1.2" stroke-miterlimit="10" stroke-linecap="round" stroke-linejoin="round"/><mask id="a" maskUnits="userSpaceOnUse" x="400" y="242" width="42" height="46"><path d="M403.57 253.87c-11.37 23.77 13.2 44.7 30.7 26.59 22.24-26.36-16.2-52.17-30.7-26.6z" fill="#F6F6F1" stroke="#1C1C1C" stroke-width="1.2" stroke-miterlimit="10" stroke-linecap="round" stroke-linejoin="round"/></mask><g mask="url(#a)"><path d="M441.8 270c-11.15 31.07-40.47 20.52-40.47 1.75 8.2 16.42 28.15 13.49 40.46-1.76z" fill="#FA7B6A"/></g><path d="M403.57 253.87c-11.37 23.77 13.2 44.7 30.7 26.59 22.24-26.36-16.2-52.17-30.7-26.6z" stroke="#1C1C1C" stroke-width="1.2" stroke-miterlimit="10" stroke-linecap="round" stroke-linejoin="round"/><path fill-rule="evenodd" clip-rule="evenodd" d="M417.57 266c.25.22.28.6.06.85-1 1.14-2.08 2.23-3.2 3.24.94.56 2 .91 3.09 1.04a.6.6 0 01-.14 1.2 9.17 9.17 0 01-4.3-1.68.6.6 0 01-.04-.94 37.5 37.5 0 003.69-3.65.6.6 0 01.84-.06zM424.27 272.37c.32.09.51.42.43.74a5.46 5.46 0 01-4.6 3.9c-2 .29-4.22-.44-5.31-2.44a.6.6 0 111.05-.57c.8 1.45 2.44 2.06 4.1 1.82a4.25 4.25 0 003.6-3.03.6.6 0 01.73-.42zM414.96 261.89a5.5 5.5 0 00-7.3-.38.6.6 0 11-.78-.91 6.7 6.7 0 018.96.46.6.6 0 01-.88.83zM422.79 260.48a7.27 7.27 0 018.75-.42.6.6 0 11-.7.98 6.07 6.07 0 00-7.26.35.6.6 0 01-.8-.91z" fill="#1C1C1C"/><path d="M410.8 268.1a2.27 2.27 0 10.23-4.54 2.27 2.27 0 00-.23 4.54zM427.26 267.75a2.27 2.27 0 10.23-4.54 2.27 2.27 0 00-.23 4.54z" fill="#1C1C1C"/><path d="M415.92 234.64c-2.8-.4-5.79-3.63-5.78-6.8a8.5 8.5 0 00-2.64 8.72 5.1 5.1 0 01-5.36.14c.16 2.03.9 4 2.13 5.63a15.13 15.13 0 01-7.07 2.3 3.72 3.72 0 001.08 3.25c-3.57 4.63-2.14 15.35 2.1 18.72.3-7.64 2.4-11.82 8.18-17.3-.97 1.53-2.18 6.48-2.06 8.28 3.48-1.4 8.29-6.87 11.77-8.27-.35 1.17-.9 6.14-1.24 7.31 13.8-8.12 20.84-4.06 23.82 9.71 1.61-4.16 2.46-7.69 2.58-10.07-.05-17.6-16.75-20.11-27.51-21.62z" fill="#1C1C1C"/><path fill-rule="evenodd" clip-rule="evenodd" d="M410.4 227.3c.2.1.34.3.34.54 0 1.4.66 2.87 1.69 4.05a6.2 6.2 0 003.57 2.16c5.37.75 12.34 1.76 17.98 4.84a19.1 19.1 0 017.15 6.46c1.8 2.84 2.89 6.41 2.9 10.91v.03c-.12 2.47-1 6.06-2.62 10.26a.6.6 0 01-1.15-.1c-1.48-6.84-3.93-11.04-7.51-12.64-3.58-1.6-8.55-.71-15.41 3.33a.6.6 0 01-.88-.69c.15-.53.37-2 .6-3.57v-.08c.13-.84.25-1.7.37-2.4-.5.3-1.05.66-1.62 1.08-.98.72-2 1.57-3.04 2.43h-.01c-1.03.86-2.08 1.73-3.08 2.47-1.01.74-2.01 1.38-2.95 1.76a.6.6 0 01-.83-.51c-.07-1 .23-2.78.64-4.44.11-.46.24-.94.37-1.39a22.55 22.55 0 00-3.95 5.6c-1.24 2.6-1.83 5.46-1.99 9.23a.6.6 0 01-.97.44c-2.3-1.83-3.75-5.54-4.2-9.29-.42-3.54.02-7.34 1.7-9.86a4.31 4.31 0 01-.9-3.4.6.6 0 01.56-.5c2.2-.14 4.34-.78 6.25-1.87a11.43 11.43 0 01-1.87-5.4.6.6 0 01.9-.57c1.3.78 3.03.8 4.36.1-.75-3.2.42-6.8 2.95-8.9a.6.6 0 01.64-.09zm-.72 1.83a7.94 7.94 0 00-1.6 7.26.6.6 0 01-.25.67 5.71 5.71 0 01-4.96.63c.3 1.55.94 3.03 1.88 4.28a.6.6 0 01-.16.87 15.73 15.73 0 01-6.84 2.34c0 .84.34 1.68.94 2.26a.6.6 0 01.06.8c-1.64 2.14-2.19 5.78-1.75 9.4.36 3.03 1.39 5.86 2.85 7.6.23-3.24.85-5.9 2.03-8.36 1.32-2.78 3.35-5.25 6.26-8.02a.6.6 0 01.92.75c-.43.68-.95 2.21-1.36 3.87-.28 1.15-.49 2.29-.57 3.14a17.2 17.2 0 001.83-1.2c.98-.73 2-1.57 3.04-2.43l.01-.01a70.42 70.42 0 013.09-2.47c1-.74 2-1.38 2.94-1.75a.6.6 0 01.8.72c-.15.53-.37 2-.6 3.57v.08l-.36 2.31c6.39-3.54 11.45-4.47 15.36-2.72 3.74 1.66 6.19 5.68 7.73 11.54 1.15-3.3 1.76-6.07 1.86-8.01-.02-4.3-1.04-7.63-2.71-10.26a17.91 17.91 0 00-6.72-6.05c-5.41-2.95-12.17-3.95-17.56-4.7a7.38 7.38 0 01-4.31-2.56 8.13 8.13 0 01-1.85-3.55z" fill="#1C1C1C"/><path d="M434.78 272.9a2.96 2.96 0 10-3.5-4.77 2.96 2.96 0 003.5 4.77z" fill="#F6DE05"/><path fill-rule="evenodd" clip-rule="evenodd" d="M434.93 269.12a2.36 2.36 0 10-3.8 2.79 2.36 2.36 0 003.8-2.8zm-4-1.48a3.56 3.56 0 114.2 5.74 3.56 3.56 0 01-4.2-5.74z" fill="#1C1C1C"/><path d="M407.79 273.4a2.96 2.96 0 10-3.5-4.77 2.96 2.96 0 003.5 4.77z" fill="#F6DE05"/><path fill-rule="evenodd" clip-rule="evenodd" d="M407.94 269.62a2.36 2.36 0 10-3.8 2.8 2.36 2.36 0 003.8-2.8zm-4-1.47a3.56 3.56 0 114.2 5.73 3.56 3.56 0 01-4.2-5.73z" fill="#1C1C1C"/><path d="M381.39 289.93c-2.35-1.17 11.73-17.6 15.83-15.25 2.12 1.21 5.28 5.28-2.93 12.32-9.38 8.8-11.76 3.5-12.9 2.93z" fill="#FA7B6A"/><path fill-rule="evenodd" clip-rule="evenodd" d="M395.1 274.04c.85-.25 1.7-.29 2.42.12a5.27 5.27 0 012.7 4.49c.04 2.3-1.38 5.24-5.53 8.8-4.71 4.42-7.84 5.46-10.03 5.12a5.02 5.02 0 01-2.48-1.16l-.61-.56a7.04 7.04 0 00-.45-.38 1.07 1.07 0 01-.58-.85c-.04-.3.02-.64.11-.95.2-.63.6-1.42 1.14-2.27a41.1 41.1 0 014.66-5.82c1.89-2 4-3.9 5.9-5.17.96-.63 1.9-1.12 2.75-1.37zm-13.37 15.4c.21.12.41.3.57.45l.1.1.55.5c.48.4 1.08.77 1.9.9 1.61.25 4.37-.46 9.03-4.83l.02-.02c4.06-3.47 5.16-6.1 5.13-7.88a4.07 4.07 0 00-2.1-3.46c-.31-.17-.79-.21-1.5 0-.68.2-1.5.62-2.41 1.21a34.86 34.86 0 00-5.7 4.99 39.88 39.88 0 00-4.51 5.65c-.52.81-.86 1.49-1 1.97-.07.2-.08.34-.08.41z" fill="#1C1C1C"/><path d="M404.85 329.8c-7.98-.93-19.94 8.8-19.94 8.8l.59-11.14 5.27-8.8c8.02 4.11 22.05 12.09 14.08 11.15z" fill="#FA7B6A"/><path fill-rule="evenodd" clip-rule="evenodd" d="M390.26 318.36a.6.6 0 01.79-.23c4 2.06 9.55 5.1 13.1 7.5.88.6 1.66 1.18 2.25 1.7.58.49 1.06.99 1.28 1.46.12.23.2.56.08.9a1.1 1.1 0 01-.69.64c-.51.2-1.3.2-2.3.07-1.86-.21-4 .19-6.2.95-2.2.77-4.4 1.88-6.38 3.02a60.97 60.97 0 00-6.77 4.6l-.1.07-.02.02-.01.01a.6.6 0 01-.98-.5l.59-11.14c0-.1.03-.2.08-.28l5.28-8.8zm-4.68 18.97l.97-.72a62.1 62.1 0 015.04-3.27 38.93 38.93 0 016.58-3.12c2.29-.8 4.63-1.26 6.75-1 .88.1 1.39.07 1.64.01a4.63 4.63 0 00-.94-1 24.76 24.76 0 00-2.15-1.6 136.44 136.44 0 00-12.47-7.17l-4.91 8.18-.51 9.69zm21.11-8.14z" fill="#1C1C1C"/><path d="M446.49 336.26c4.22.94 9.96.4 12.31 0l-3.52-5.87-14.07-1.17c0 1.96 1.05 6.1 5.28 7.04z" fill="#FA7B6A"/><path fill-rule="evenodd" clip-rule="evenodd" d="M440.8 328.78a.6.6 0 01.46-.16l14.07 1.18c.2.01.37.12.47.29l3.51 5.86a.6.6 0 01-.41.9c-2.37.4-8.2.96-12.54 0a6.88 6.88 0 01-4.62-3.43 8.94 8.94 0 01-1.13-4.2.6.6 0 01.2-.44zm1.05 1.1c.09.85.36 1.94.94 2.95a5.68 5.68 0 003.83 2.84c3.65.82 8.54.48 11.2.13l-2.9-4.83-13.07-1.1z" fill="#1C1C1C"/><path d="M385.7 362.35c.81 1.41 2.95 1.22 4.51 1.66 2.7.75 22.48 2.23 21.18-4.69-1.51-3.27-3.34-5.06-6.77-6.14-3.37-1.07-7.13-1.5-10.59-.52-2.44.69-5.22 1.54-6.87 3.56-1.18 1.45-2.48 4.34-1.46 6.13z" fill="#FA7B6A"/><path fill-rule="evenodd" clip-rule="evenodd" d="M393.87 352.08c3.6-1.01 7.5-.56 10.93.53 1.78.56 3.18 1.31 4.33 2.38a12.51 12.51 0 012.85 4.22c.19 1.02 0 1.91-.52 2.67-.5.74-1.28 1.3-2.2 1.74-1.81.87-4.34 1.32-6.92 1.52-2.59.2-5.3.16-7.54.03a29.07 29.07 0 01-4.75-.58l.16-.58-.16.58c-.35-.1-.74-.17-1.18-.23l-.17-.03c-.37-.06-.77-.11-1.15-.2-.88-.2-1.83-.55-2.37-1.48-.63-1.1-.51-2.48-.15-3.67a9.78 9.78 0 011.66-3.14c1.79-2.19 4.76-3.08 7.18-3.76zm0 0l.16.58-.16-.58zm10.57 1.67c-3.3-1.05-6.94-1.44-10.25-.51-2.47.7-5.06 1.51-6.57 3.36a8.58 8.58 0 00-1.44 2.73c-.33 1.07-.35 2.04.04 2.72.28.48.8.74 1.58.91a35.43 35.43 0 001.25.21c.43.07.9.14 1.32.26.61.17 2.3.4 4.5.54 2.2.13 4.86.17 7.38-.03 2.54-.2 4.88-.63 6.5-1.4.8-.39 1.37-.84 1.71-1.34.32-.46.46-1.01.35-1.7a11.23 11.23 0 00-2.5-3.63c-.99-.92-2.22-1.6-3.87-2.12z" fill="#1C1C1C"/><path d="M453.82 370.55c2.96-4.95 5.37-3.37 6.25-1.06-.35-2.17.8-6.13 3.42-6.54 1.55-.25 2.58 1.5 3.13 2.97 2.96-.31 6.55-4.16 9.59-3.62 4.53.84-.63 13.79-7.38 16.12-.18 2.41-4.31 4.59-5.77 4.55-3.39-.08-3.46-4.88-5.9-6.73-3.43-2.61-4.73-3.36-3.34-5.69-9.71-8.16-16.1-15.94-22.16-24.87-6.3-9.25 2.74-20.36 10.63-9.07 6.54 9.39 12.75 18.07 19.29 27.46" fill="#F6F6F1"/><path d="M442.67 359.87c4.58-.83 9.88-3.53 11.64-6.15l-2.38-3.38-3.02-4.28c-4.63-1.13-6.75 6.91-7.94 11.4l-.1.38 1.8 2.03zM477.9 365.5c-.07-.63-.36-1.02-.92-1.1-1.47-.17-4.1 4-6.47 7.8-1.63 2.58-3.14 4.98-4.09 5.7a9.9 9.9 0 01-2.91 1.16c-2.13.61-4.12 1.2-2.37 2.94.44.44.92.74 1.42.92.16.03.32.04.5.05 1.45.04 5.59-2.14 5.77-4.55 4.8-1.66 8.8-8.7 9.07-12.92z" fill="#FA7B6A"/><path fill-rule="evenodd" clip-rule="evenodd" d="M432.08 333.86c-2.22 2.29-2.94 7.05.07 11.48 5.94 8.73 12.16 16.36 21.53 24.3 1.37-2.08 2.75-3.02 4.08-2.94.7.04 1.27.35 1.74.8.1-.74.31-1.49.62-2.18.19-.44.43-.88.71-1.27-3.18-4.56-6.28-8.96-9.39-13.36-3.18-4.52-6.37-9.04-9.64-13.74l.49-.34-.5.34c-1.91-2.75-3.84-4.04-5.5-4.4a4.4 4.4 0 00-4.2 1.31zm29.59 29.3c-3.13-4.5-6.19-8.83-9.25-13.16-3.18-4.52-6.37-9.04-9.64-13.74-2.02-2.9-4.18-4.44-6.24-4.88a5.6 5.6 0 00-5.31 1.65c-2.7 2.76-3.35 8.17-.07 12.99 6.02 8.84 12.34 16.59 21.9 24.68-.23.45-.37.89-.39 1.33-.03.6.17 1.12.52 1.6.34.48.83.93 1.43 1.41.44.36.96.76 1.56 1.2l.62.48c.51.39.93.95 1.31 1.64.24.42.45.85.66 1.29l.45.9c.75 1.44 1.76 2.97 3.83 3.02.49.01 1.1-.15 1.72-.4.64-.25 1.34-.62 2-1.06a8.17 8.17 0 001.76-1.58c.4-.5.71-1.06.85-1.67a12.36 12.36 0 004.54-3.43c1.4-1.6 2.57-3.52 3.38-5.4.8-1.85 1.27-3.71 1.21-5.2a3.99 3.99 0 00-.53-2.01 2.43 2.43 0 00-1.66-1.11c-.9-.16-1.81.01-2.68.32-.86.3-1.72.77-2.55 1.24l-.62.36c-.62.35-1.2.69-1.8.98-.6.3-1.15.52-1.67.64a7.1 7.1 0 00-1.12-1.85c-.6-.68-1.43-1.21-2.48-1.04-.67.1-1.24.4-1.73.8zm.35 1.33a2.6 2.6 0 011.57-.94c.49-.09.94.13 1.4.64.44.51.8 1.24 1.07 1.94.1.25.36.41.63.38.84-.08 1.7-.42 2.52-.83.62-.3 1.26-.67 1.88-1.03l.6-.34c.81-.46 1.6-.88 2.36-1.15.75-.27 1.44-.38 2.05-.27.4.07.67.27.86.57.2.32.33.78.36 1.4a11.7 11.7 0 01-1.12 4.7 19.75 19.75 0 01-3.18 5.08 10.82 10.82 0 01-4.38 3.21.6.6 0 00-.4.52c-.04.44-.26.92-.65 1.4-.39.5-.92.95-1.5 1.35-.59.4-1.2.72-1.76.94-.57.22-1.01.32-1.25.3-1.33-.02-2.05-.93-2.8-2.37l-.4-.8c-.23-.48-.47-.98-.72-1.42a6.43 6.43 0 00-1.63-2v-.01l-.65-.49c-.58-.44-1.08-.81-1.5-1.16a6.74 6.74 0 01-1.21-1.17 1.3 1.3 0 01-.3-.86c.01-.3.14-.68.46-1.22 1.47-2.45 2.64-3 3.36-2.97.72.05 1.4.73 1.82 1.81a.6.6 0 001.15-.3c-.16-.96.02-2.38.55-3.6.23-.51.5-.95.8-1.31z" fill="#1C1C1C"/><path fill-rule="evenodd" clip-rule="evenodd" d="M471.04 368.87c-2.92-.2-5.9.55-8.38 2.1a.6.6 0 01-.63-1.02c2.7-1.68 5.92-2.5 9.09-2.28a.6.6 0 11-.08 1.2z" fill="#1C1C1C"/><path fill-rule="evenodd" clip-rule="evenodd" d="M468.17 365.64c.3.16.4.53.24.82a10.26 10.26 0 00-1.06 6.89.6.6 0 01-1.18.23c-.52-2.6-.1-5.38 1.19-7.7a.6.6 0 01.81-.24z" fill="#1C1C1C"/><path d="M391.11 344.6c-1.36 6.16-3.27 23.68.76 26.74 2.46 1.87 10.05 1.87 14.5 4.15-1.52 2.4-.74 3.74 1.4 4.75.3 3.15 2.96 11.25 8.8 9.97 5.29-1.15 5.87-12.9 2.94-19.94.59-6.45-4.7-5.86-7.04-4.55-2.14-.49-4.47-.75-5.6-1.52-4.37-2.14 5.01-9.17 3.05-13.42-9.18-13.93-18.05-8.07-18.8-6.18z" fill="#F6F6F1"/><path d="M420.03 371.7c-.4-.4-.79-.7-1.1-.84-6.48-2.97-8.61-1.97-11.3-.7-2.87 1.34-6.38 2.98-16.44.45.2.3.43.54.68.73 1.22.93 3.7 1.4 6.44 1.9 2.78.53 5.82 1.1 8.07 2.25-1.53 2.4-.75 3.74 1.4 4.75.3 3.15 2.95 11.25 8.8 9.97 4.93-1.08 5.77-11.42 3.45-18.52zM409.17 355.41c-2.15-1.47-7.61-1.74-19.6 1.21a62.56 62.56 0 00-.06 6.67c3.82-1.2 10.04-2.84 16.2-.66-.1-1.27.94-2.97 2.04-4.77.49-.8 1-1.63 1.42-2.45z" fill="#FA7B6A"/><path fill-rule="evenodd" clip-rule="evenodd" d="M397.37 341.16c3.72.04 8.39 2.22 13.05 9.3l.04.07c.6 1.3.3 2.73-.25 4.07-.5 1.2-1.25 2.43-1.95 3.57l-.25.42a13.02 13.02 0 00-1.64 3.34c-.1.44-.09.77.01 1.02.1.24.3.49.75.7l.08.05c.46.32 1.22.56 2.21.78l1.47.3.08.02c.46.09.94.18 1.41.29a6.84 6.84 0 014.9-.57c.9.29 1.7.87 2.24 1.85.5.94.73 2.2.6 3.8a26.85 26.85 0 011.6 12.34c-.23 2.03-.72 3.91-1.52 5.38-.8 1.46-1.95 2.57-3.5 2.9-3.28.73-5.62-1.23-7.11-3.58a17.48 17.48 0 01-2.37-6.57c-.97-.5-1.76-1.14-2.09-2.05-.3-.86-.14-1.8.4-2.84-2.07-.92-4.72-1.42-7.27-1.9l-.07-.02c-1.35-.25-2.67-.5-3.8-.8a8.48 8.48 0 01-2.88-1.21 4.84 4.84 0 01-1.44-2.02c-.35-.84-.61-1.85-.8-2.96a41.9 41.9 0 01-.4-7.72 87.84 87.84 0 011.69-14.75c.14-.35.43-.72.79-1.06.37-.35.86-.7 1.44-1.03a9.27 9.27 0 014.57-1.12zm-5.68 3.62a86.86 86.86 0 00-1.62 14.37c-.07 2.75.03 5.37.38 7.49.18 1.05.42 1.96.73 2.7.3.72.66 1.23 1.05 1.52.52.4 1.35.72 2.47 1.01 1.09.3 2.37.53 3.74.79h.04c2.74.52 5.85 1.1 8.17 2.3a.6.6 0 01.23.85c-.72 1.14-.8 1.87-.62 2.38.2.53.74 1.02 1.78 1.51.19.09.32.28.34.49.14 1.49.85 4.2 2.22 6.38 1.38 2.16 3.29 3.62 5.85 3.06 1.1-.24 2-1.04 2.7-2.32.7-1.28 1.16-3 1.38-4.93.43-3.87-.15-8.46-1.57-11.88a.6.6 0 01-.05-.28 5.78 5.78 0 00-.45-3.28 2.61 2.61 0 00-1.55-1.28 5.7 5.7 0 00-4.15.59.6.6 0 01-.42.06c-.53-.12-1.06-.23-1.6-.33l-.08-.02-1.5-.3a8.04 8.04 0 01-2.6-.95 2.56 2.56 0 01-1.29-1.3 2.88 2.88 0 01-.07-1.75 14 14 0 011.78-3.7l.26-.41c.7-1.16 1.4-2.3 1.86-3.41.5-1.23.65-2.25.29-3.07-4.5-6.83-8.85-8.68-12.04-8.71a8.05 8.05 0 00-3.98.97c-.5.28-.9.58-1.2.86-.27.25-.42.47-.48.6z" fill="#1C1C1C"/><path fill-rule="evenodd" clip-rule="evenodd" d="M411.4 365.22a.6.6 0 01.84-.12c.7.52 1.27 1.36 1.69 2.28.42.93.7 2 .82 3.05a7.2 7.2 0 01-.23 3.01c-.3.91-.88 1.7-1.82 2.08a.6.6 0 01-.74-.25 1.72 1.72 0 00-1.26-.9c-.5-.07-1.08.04-1.7.29-.6.24-1.18.6-1.63.96-.48.38-.76.69-.82.8a.6.6 0 01-1.06-.57c.2-.35.63-.78 1.14-1.17.52-.41 1.2-.84 1.92-1.13.72-.3 1.54-.49 2.33-.36.67.1 1.28.41 1.77.99.32-.25.56-.62.73-1.12.23-.69.29-1.57.18-2.5a9.1 9.1 0 00-.73-2.69 4.7 4.7 0 00-1.3-1.8.6.6 0 01-.13-.85zM409.04 380.85a.6.6 0 01.68-.5l3.55.57 3.55.56a.6.6 0 01-.19 1.19l-3.55-.57-3.55-.57a.6.6 0 01-.5-.68z" fill="#1C1C1C"/><path fill-rule="evenodd" clip-rule="evenodd" d="M413.84 377.37c.3.15.4.51.25.8a12.31 12.31 0 00-1.37 6.71.6.6 0 11-1.2.1c-.2-2.53.33-5.12 1.51-7.36a.6.6 0 01.81-.25z" fill="#1C1C1C"/><path d="M437.17 317.19c-.6 13.67 13.28 21.1 17.52 30.21-9.06 6.85-13.9 12.4-25.21 13.49-1.9-4.05-5.28-14.07-11.45-17.67a60.05 60.05 0 00-6.46 16.5c-8.39-3.61-18.27-3.57-26.07 1.17-1.18-5.86 5.06-24.92 7.65-30.16 0-19.1 39.85-21.45 44.02-13.54z" fill="#FA7B6A"/><path fill-rule="evenodd" clip-rule="evenodd" d="M399.8 319.93c-3.7 2.7-6.05 6.27-6.05 10.8a.6.6 0 01-.06.27c-1.27 2.57-3.47 8.6-5.2 14.74a88.36 88.36 0 00-2.07 8.8 24.33 24.33 0 00-.44 5.38c7.65-4.29 17.06-4.3 25.17-1.03a60.7 60.7 0 016.36-15.96.6.6 0 01.82-.23c3.24 1.89 5.7 5.42 7.56 8.9 1.27 2.38 2.31 4.82 3.13 6.76.3.7.58 1.35.83 1.89 8.84-.95 13.58-4.71 19.97-9.8 1.3-1.03 2.65-2.1 4.12-3.23a31 31 0 00-4.31-6.07c-.79-.91-1.63-1.85-2.5-2.8-1.16-1.3-2.36-2.62-3.48-3.96-3.92-4.7-7.34-10.07-7.1-17.06-.45-.76-1.36-1.47-2.72-2.06a20.58 20.58 0 00-5.38-1.4 47.55 47.55 0 00-14.74.55c-5.2.98-10.2 2.8-13.91 5.51zm34.52-5.76c1.54.68 2.76 1.57 3.38 2.74.05.09.07.2.06.3-.28 6.61 2.92 11.74 6.81 16.4 1.13 1.36 2.28 2.63 3.42 3.9.86.94 1.71 1.89 2.55 2.85 1.9 2.2 3.6 4.43 4.7 6.79a.6.6 0 01-.18.73c-1.58 1.2-3.03 2.35-4.42 3.46-6.52 5.2-11.6 9.24-21.1 10.15a.6.6 0 01-.6-.35c-.32-.67-.67-1.49-1.06-2.4-.8-1.9-1.8-4.24-3.05-6.57-1.73-3.24-3.9-6.33-6.59-8.1a59.4 59.4 0 00-6.08 15.78.6.6 0 01-.82.41c-8.25-3.54-17.92-3.48-25.53 1.14a.6.6 0 01-.9-.4c-.32-1.58-.13-3.96.33-6.66a89.52 89.52 0 012.1-8.92c1.7-6.07 3.88-12.1 5.21-14.83.05-4.95 2.67-8.8 6.54-11.63 3.9-2.85 9.1-4.71 14.4-5.72 5.3-1 10.73-1.16 15.12-.55 2.2.3 4.15.8 5.7 1.48z" fill="#1C1C1C"/><path d="M488.06 275.08c2.46.5 4.96 1.34 6.77 3.08 4.9 6.01 1.7 10.17-2.33 2.15 3 4.08-1.03 9.42-3.12.9.1.36.97 3.77-.11 4.5-1.38.93-2.41-.9-2.66-1.71-3.32-3.9-24.33 11.36-43.1 10.53-8.56-.72-8.88-13.52.09-13.9 14.9-.66 29.4-8.55 44.45-5.55z" fill="#F6F6F1"/><path d="M482.35 283.75c-2.27.6-5.26 1.82-8.72 3.23-5.7 2.33-12.7 5.19-19.88 6.64l-1.99-3.69c2.35-4.7 17-6.45 29.91-6.45.45 0 .66.1.68.27z" fill="#FA7B6A"/><path fill-rule="evenodd" clip-rule="evenodd" d="M494.39 278.57c-1.69-1.61-4.04-2.42-6.45-2.9-7.4-1.48-14.69-.28-22.04 1.4-1.47.33-2.94.69-4.42 1.04-5.89 1.42-11.84 2.86-17.86 3.12-2.09.09-3.59.9-4.57 2.02a6.29 6.29 0 00-1.47 4.2c.03 3.08 2.06 6.15 5.97 6.48 9.24.4 19.06-3.15 27.08-6.37l2.76-1.13a110.7 110.7 0 017.54-2.89c1.38-.44 2.6-.73 3.62-.78 1-.04 1.93.15 2.52.85.06.06.1.13.12.21.1.34.38.9.74 1.25.18.17.34.26.48.29.13.02.3 0 .52-.15.06-.04.17-.18.23-.56.06-.35.05-.8 0-1.27a13.55 13.55 0 00-.36-2.04.6.6 0 011.16-.3l.08.3c.5 1.92 1.07 2.98 1.56 3.47.25.25.43.32.54.34.1 0 .2-.02.31-.12.27-.23.53-.8.52-1.65 0-.45-.08-.94-.27-1.44-.24-.42-.49-.87-.73-1.36a.6.6 0 011.02-.62c.35.47.6.96.8 1.45a8.98 8.98 0 001.84 2.33c.35.28.6.38.75.4.12.02.15 0 .18-.04.05-.06.13-.21.15-.53.01-.31-.04-.73-.19-1.24-.3-1-.96-2.31-2.13-3.76zm-.25 5.4c.25.27.5.5.73.7.44.36.9.6 1.34.66.48.07.93-.07 1.25-.44.3-.33.42-.8.44-1.26a5.02 5.02 0 00-.23-1.64 12.49 12.49 0 00-2.42-4.26c-1.94-1.87-4.58-2.74-7.08-3.24-7.66-1.53-15.16-.28-22.54 1.4l-4.48 1.07c-5.88 1.41-11.7 2.81-17.58 3.07a7.36 7.36 0 00-5.43 2.44 7.49 7.49 0 00-1.76 4.99c.03 3.59 2.44 7.28 7.08 7.67h.03c9.52.42 19.58-3.24 27.59-6.46l2.8-1.14c2.86-1.17 5.36-2.19 7.42-2.84 1.35-.43 2.45-.69 3.3-.73.78-.03 1.23.12 1.49.35a4.4 4.4 0 001.01 1.63c.28.27.65.52 1.1.6.46.08.94-.02 1.4-.33.4-.27.6-.7.7-1.1.14.2.29.39.44.54.38.39.8.64 1.27.69.48.05.9-.12 1.23-.4.51-.45.81-1.17.9-1.98z" fill="#1C1C1C"/><path d="M369.29 246.2c1.18 1.89 2.38 3.35 3.54.37.4-1.04.86-3.34 2.34-3.35 1.26-.05 1.16 1.92.58 3.04.45-1.26 1.65-2.95 2.98-2.38 1.58.67-.05 3.25-.8 4.68.98-2.63 3.75-2.55 2.9.43-3.36 11.59 10.62 23.16 18.15 30.38 12.42 11.94-2.24 18.51-11.66 8.92a74.3 74.3 0 01-20.45-40.5c-.27-1.73.83-4.14 2.42-1.6z" fill="#F6F6F1"/><path d="M392.9 292.03a15.9 15.9 0 01-5.58-3.74 74.55 74.55 0 01-11.67-15.45l-3.06-6.95c5.87 8.8 17.6 21.1 27.56 18.76 4.48-1.05-1.2 3.87-7.25 7.38z" fill="#FA7B6A"/><path fill-rule="evenodd" clip-rule="evenodd" d="M375.41 243.9c-.03-.05-.08-.09-.21-.08h-.02c-.38 0-.71.28-1.05.96-.15.31-.29.67-.4 1.02l-.11.32-.23.67c-.3.77-.64 1.35-1.05 1.7-.21.18-.45.3-.72.36-.28.05-.54 0-.77-.08a2.97 2.97 0 01-1.14-.92c-.32-.39-.63-.86-.93-1.34-.37-.6-.64-.77-.76-.81-.04-.02-.08-.03-.19.08a1.8 1.8 0 00-.33.8c-.08.35-.09.75-.03 1.1v.01a73.71 73.71 0 0020.28 40.18c4.58 4.66 10.3 5.27 13.29 3.52a4.1 4.1 0 002.09-4.18c-.2-1.94-1.5-4.47-4.56-7.4l-2.26-2.14c-3.47-3.24-7.67-7.18-10.96-11.48-4.05-5.29-6.86-11.29-5.1-17.37.2-.67.15-1.09.06-1.3-.07-.18-.18-.24-.3-.25-.22-.02-.65.13-1.04.63l-.26.48-.25.46a.6.6 0 01-1.09-.5c.15-.4.34-.75.57-1.06.27-.5.53-1.04.7-1.54.13-.42.18-.74.14-.96-.02-.16-.09-.27-.28-.35-.35-.15-.73-.05-1.17.38a4.3 4.3 0 00-1.05 1.73.6.6 0 01-1.1-.48l.23-.54c.12-.38.18-.81.15-1.16a.9.9 0 00-.15-.47zm1.26-.1a1.8 1.8 0 00-.33-.66c-.28-.35-.69-.54-1.18-.52-1.1.01-1.74.89-2.1 1.62-.2.4-.35.81-.47 1.18l-.12.36-.2.57a3.18 3.18 0 01-.7 1.23c-.09.07-.14.08-.17.09l-.12-.02a1.88 1.88 0 01-.64-.56c-.27-.33-.55-.75-.84-1.21-.42-.68-.88-1.15-1.41-1.32-.6-.2-1.12.05-1.46.43-.31.36-.5.85-.6 1.34-.1.5-.13 1.04-.05 1.54a74.91 74.91 0 0020.62 40.84c4.83 4.93 11.15 5.83 14.75 3.71a5.3 5.3 0 002.67-5.33c-.25-2.35-1.77-5.12-4.92-8.15l-2.3-2.17c-3.47-3.25-7.58-7.1-10.8-11.31-3.99-5.21-6.5-10.8-4.9-16.3.24-.82.25-1.53.03-2.09a1.53 1.53 0 00-1.64-1c.15-.47.26-.99.18-1.47a1.6 1.6 0 00-1-1.28c-.9-.38-1.71-.03-2.3.47z" fill="#1C1C1C"/><path d="M452.93 277.62c3.19 4.04 5.8 14.66 3.51 19.94-1.5 3.5-6.45 3.51-10.8 6.96-7.37 8.87 16.68 14.73 13.16 31.15-15.18-7-46.6-1.31-61 7.63-1.17-11.15-7.72-15.02-6.7-21.12-3.73 5.5-4.28 12.03-6.78 18.19-8.2-13.5 17.37-32.21 6.79-40.38-4.94-4.53-6.8-5.37-9.68-9.64 5.21-2.68 17.46-7.58 16.37-15.08 3.5 2.26 6.7 4.25 9.27 7.53 1.4 1.76 5.32-1.28 7.75.68 4.22 2.9 5.61 3.7 9.38 2.35 16.18-6.28 25.5-11.14 28.73-8.21z" fill="#F6F6F1"/><path fill-rule="evenodd" clip-rule="evenodd" d="M397.48 274.77a.6.6 0 01.64 0c.18.1.34.22.51.33 3.3 2.12 6.4 4.12 8.91 7.32.19.24.47.36.98.35.49 0 1.06-.12 1.74-.25l.18-.04c1.4-.29 3.27-.65 4.73.52 2.13 1.45 3.45 2.3 4.68 2.67 1.17.34 2.32.24 4.14-.4 3.28-1.28 6.29-2.5 9.03-3.6 3.98-1.62 7.38-3 10.2-3.97a27.36 27.36 0 016.08-1.52c1.65-.15 3.04.1 4.03 1l.07.06c1.67 2.13 3.15 5.9 3.93 9.77.77 3.85.88 7.97-.34 10.78-.85 2-2.68 2.95-4.64 3.82l-.91.4c-1.74.75-3.6 1.55-5.37 2.94a4.81 4.81 0 00-1.24 2.82c-.04.89.23 1.8.78 2.76 1 1.76 2.8 3.55 4.88 5.6l.7.71c4.64 4.6 10.03 10.4 8.2 18.96a.6.6 0 01-.84.42c-7.43-3.43-18.94-3.78-30.46-2.12-11.5 1.66-22.87 5.3-29.97 9.7a.6.6 0 01-.92-.44c-.57-5.45-2.45-9.12-4.1-12.23l-.17-.32c-1.16-2.2-2.23-4.2-2.48-6.39a35.65 35.65 0 00-2.63 6.78l-.68 2.37c-.65 2.32-1.32 4.7-2.26 7.02a.6.6 0 01-1.07.09c-2.17-3.57-2.08-7.46-.98-11.33 1.1-3.86 3.23-7.78 5.25-11.46l.07-.14c2.01-3.66 3.88-7.07 4.62-10.05.38-1.5.46-2.85.16-4.04a5.72 5.72 0 00-2.23-3.23c-1.4-1.29-2.57-2.28-3.58-3.15-2.5-2.13-4.1-3.5-6.19-6.6a.6.6 0 01.22-.86c.64-.33 1.36-.68 2.14-1.06 2.52-1.23 5.65-2.76 8.34-4.64 3.57-2.49 6.06-5.4 5.58-8.76a.6.6 0 01.27-.6zm.98 1.65c3.12 2 5.88 3.87 8.14 6.75.51.64 1.24.81 1.93.8a10.72 10.72 0 002.15-.32c1.5-.3 2.8-.48 3.76.3l.04.03c2.09 1.43 3.57 2.41 5.03 2.84 1.52.44 2.95.27 4.9-.43a635.3 635.3 0 009.1-3.63c3.96-1.6 7.3-2.96 10.1-3.93a26.23 26.23 0 015.8-1.45c1.48-.13 2.45.1 3.07.65 1.5 1.93 2.92 5.47 3.67 9.21.76 3.79.81 7.61-.26 10.08-.65 1.51-2.05 2.31-4.03 3.2l-.87.37c-1.76.76-3.8 1.64-5.72 3.16a6.04 6.04 0 00-1.63 3.65c-.07 1.2.3 2.33.92 3.42 1.09 1.92 3.03 3.84 5.07 5.85l.72.72c4.53 4.5 9.24 9.67 8 17.13-7.75-3.28-19.19-3.52-30.43-1.9-11.19 1.6-22.32 5.08-29.64 9.38-.7-5.18-2.55-8.77-4.12-11.73l-.09-.16c-1.63-3.1-2.84-5.37-2.37-8.13a.6.6 0 00-1.09-.44c-1.92 2.83-3.01 5.9-3.94 9.02a189 189 0 00-.7 2.44 78.98 78.98 0 01-1.74 5.62c-1.3-2.87-1.17-5.99-.25-9.24 1.06-3.7 3.12-7.5 5.15-11.21l.13-.24c1.97-3.59 3.9-7.1 4.68-10.24a9.5 9.5 0 00.16-4.62 6.92 6.92 0 00-2.6-3.84 131.71 131.71 0 00-3.7-3.24c-2.27-1.94-3.69-3.16-5.49-5.72l1.45-.7a64.39 64.39 0 008.56-4.76c3.22-2.25 6.04-5.14 6.14-8.7z" fill="#1C1C1C"/><path d="M397.79 343.2c-.62-5.67-2.62-9.45-4.3-12.6-1.59-3.01-2.88-5.45-2.39-8.42-2.34 3.46-3.44 7.33-4.54 11.25a65.67 65.67 0 01-2.24 6.94c-4.14-6.8.31-14.94 4.39-22.38 4-7.31 7.64-13.95 2.4-18-1.45-1.33-2.63-2.34-3.65-3.2-2.46-2.11-4-3.42-6.03-6.44.61-.32 1.32-.66 2.1-1.04 2.4-1.17 5.4-2.64 8.05-4.42 3.07 2.25 6.46 6.3 10.43 11.05 11.6 13.86 28.18 33.67 56.47 32.17.72 2.26.92 4.76.32 7.56-15.08-6.95-46.18-1.4-60.7 7.44l-.31.1z" fill="#FA7B6A"/><path fill-rule="evenodd" clip-rule="evenodd" d="M397.48 274.77a.6.6 0 01.64 0l.51.33c3.3 2.12 6.4 4.12 8.91 7.32.19.24.47.36.98.35.49 0 1.06-.12 1.74-.25l.18-.04c1.4-.29 3.27-.65 4.73.52 2.13 1.45 3.44 2.3 4.68 2.67 1.17.34 2.32.24 4.14-.4 3.28-1.28 6.29-2.5 9.03-3.6 3.98-1.62 7.38-3 10.2-3.97a27.39 27.39 0 016.08-1.52c1.65-.15 3.04.1 4.03 1l.06.06c1.68 2.13 3.16 5.9 3.93 9.77.78 3.85.89 7.97-.33 10.78-.86 2-2.68 2.95-4.64 3.82l-.91.4c-1.74.75-3.6 1.55-5.38 2.94a4.82 4.82 0 00-1.23 2.82c-.04.89.23 1.8.78 2.76 1 1.76 2.8 3.55 4.88 5.6l.7.71c4.64 4.6 10.03 10.4 8.2 18.96a.6.6 0 01-.84.42c-7.43-3.43-18.94-3.78-30.46-2.12-11.5 1.66-22.87 5.3-29.97 9.7a.6.6 0 01-.92-.44c-.57-5.45-2.45-9.12-4.1-12.23l-.17-.32c-1.17-2.2-2.23-4.2-2.48-6.39a35.54 35.54 0 00-2.63 6.78l-.68 2.37a66.67 66.67 0 01-2.26 7.02.6.6 0 01-1.07.09c-2.17-3.57-2.08-7.46-.98-11.33 1.1-3.86 3.23-7.78 5.25-11.46l.07-.14c2.01-3.66 3.87-7.07 4.62-10.05.38-1.5.46-2.85.16-4.04a5.73 5.73 0 00-2.23-3.23c-1.4-1.29-2.57-2.28-3.58-3.15-2.5-2.13-4.1-3.5-6.19-6.6a.6.6 0 01.22-.86c.64-.33 1.36-.68 2.14-1.06 2.52-1.23 5.65-2.76 8.34-4.64 3.57-2.49 6.06-5.4 5.57-8.76a.6.6 0 01.28-.6zm.98 1.65c-.1 3.55-2.92 6.44-6.14 8.69a64.46 64.46 0 01-8.56 4.76l-1.45.7c1.8 2.56 3.22 3.78 5.5 5.72 1.01.87 2.2 1.88 3.68 3.24a6.91 6.91 0 012.6 3.84c.37 1.45.25 3-.15 4.62-.79 3.14-2.71 6.65-4.68 10.24l-.13.24c-2.03 3.7-4.09 7.5-5.15 11.2-.92 3.26-1.06 6.38.25 9.25.68-1.85 1.2-3.73 1.74-5.62l.7-2.44c.93-3.11 2.02-6.19 3.94-9.01a.6.6 0 011.09.44c-.47 2.75.74 5.03 2.37 8.12l.09.16c1.57 2.96 3.42 6.55 4.12 11.73 7.32-4.3 18.45-7.78 29.64-9.39 11.24-1.62 22.68-1.37 30.43 1.9 1.24-7.45-3.47-12.62-8-17.12l-.72-.72c-2.04-2.01-3.98-3.94-5.07-5.85a6.24 6.24 0 01-.92-3.42 6.04 6.04 0 011.63-3.65c1.92-1.52 3.96-2.4 5.72-3.16.3-.13.6-.25.87-.38 1.98-.88 3.38-1.68 4.03-3.2 1.07-2.46 1.02-6.28.26-10.07-.75-3.75-2.16-7.28-3.66-9.21-.63-.55-1.6-.78-3.09-.65-1.5.13-3.42.64-5.78 1.45-2.8.97-6.16 2.32-10.1 3.93a639.6 639.6 0 01-9.1 3.63h-.02c-1.94.7-3.37.87-4.89.43-1.46-.43-2.94-1.41-5.03-2.84a.54.54 0 01-.04-.03c-.96-.78-2.25-.6-3.76-.3l-.2.05c-.65.13-1.34.27-1.95.27-.7.01-1.42-.16-1.93-.8-2.26-2.88-5.02-4.74-8.14-6.75z" fill="#1C1C1C"/><path fill-rule="evenodd" clip-rule="evenodd" d="M418.37 300.23a27.48 27.48 0 01-6.43 3.7c-.91.26-1.98.02-2.97-.28-.36-.1-.72-.22-1.08-.34-.7-.23-1.4-.46-2.12-.62a5.75 5.75 0 00-3.04-.01c-.91.3-1.83.97-2.65 2.37a.6.6 0 01-1.03-.6 6 6 0 013.32-2.91c1.23-.4 2.5-.28 3.67-.02.77.18 1.57.43 2.3.67l.97.31c1 .3 1.74.42 2.27.28a26.33 26.33 0 006.07-3.5c.7-.54 1.37-1.07 2-1.58l.39-.3c.75-.6 1.48-1.18 2.2-1.67 1.46-1 2.97-1.71 4.74-1.74 1.77-.03 3.72.62 6.07 2.17a.6.6 0 01-.66 1c-2.24-1.47-3.94-2-5.39-1.97-1.44.02-2.7.6-4.08 1.53a35.56 35.56 0 00-2.51 1.91c-.64.52-1.32 1.06-2.04 1.6zM430.24 301.86c-1.84.64-3.5 2.22-4.81 3.56a8.3 8.3 0 01-3.04 2.18c-.92.32-1.72.24-2.45.03-.36-.1-.7-.24-1.03-.37l-.05-.02c-.32-.12-.63-.25-.96-.35a5.11 5.11 0 00-2.32-.22c-.34.04-.71.23-1.13.56-.41.33-.82.76-1.26 1.23-.43.46-.9.94-1.4 1.34a3.5 3.5 0 01-1.72.8 7.67 7.67 0 01-3.4-.42l-.84-.3c-.66-.23-1.26-.44-1.95-.56-1.8-.31-4.16.05-8.5 3.64a.6.6 0 11-.76-.92c4.47-3.7 7.18-4.3 9.47-3.9.8.14 1.54.4 2.23.65l.72.25c.9.3 1.8.5 2.89.36.34-.04.71-.22 1.13-.55.4-.32.82-.75 1.26-1.22l.03-.03c.42-.44.88-.92 1.35-1.3.5-.4 1.06-.74 1.72-.82a6.3 6.3 0 012.85.27 16.12 16.12 0 011.08.4c.33.13.63.24.92.33.57.16 1.1.2 1.73-.02a7.18 7.18 0 002.57-1.88c1.29-1.32 3.13-3.1 5.27-3.85a5.67 5.67 0 013.5-.15 7.63 7.63 0 013.61 2.53.6.6 0 11-.9.78 6.45 6.45 0 00-3.04-2.16 4.47 4.47 0 00-2.77.13zM440.59 313.24a10.86 10.86 0 00-13.06-2.94.6.6 0 01-.55-1.07c4.83-2.45 11.25-1 14.56 3.27a.6.6 0 01-.95.74zM410.59 291.6c-.6-.18-1.22-.07-1.6.29-.38.36-.52.96-.38 1.57.15.61.55 1.1 1.05 1.25.51.15 1.1-.03 1.56-.47.45-.43.67-1.01.55-1.53-.12-.51-.58-.93-1.18-1.11zm.34-1.15c.9.27 1.76.95 2 1.99a2.84 2.84 0 01-.89 2.67 2.82 2.82 0 01-2.72.74 2.84 2.84 0 01-1.87-2.1c-.22-.92-.06-2 .71-2.74a2.84 2.84 0 012.77-.56zM438.88 289.16c.07.4-.03.81-.24 1.21a3.1 3.1 0 01-2.08 1.5c-.82.2-1.72.2-2.49.1a.6.6 0 01-.52-.47c-.25-1.17 0-2.11.58-2.78a3.2 3.2 0 012.11-1.05c.74-.07 1.54.08 2.08.53.28.24.5.56.56.96zm-4.22 1.66c-.05-.62.13-1.03.38-1.32.31-.36.8-.58 1.32-.63.54-.06.98.08 1.2.25.09.08.13.16.14.23.01.08 0 .23-.12.45-.25.46-.7.75-1.31.9a5.5 5.5 0 01-1.6.12zM420.68 314.03c.41-.05.93-.03 1.32.25.6.44.86 1.12.87 1.77a2.7 2.7 0 01-.66 1.82c-.3.33-.71.5-1.11.56-.41.07-.87.05-1.3-.06a2.7 2.7 0 01-2.05-1.9c-.14-.56.17-1.02.45-1.31a4.63 4.63 0 012.48-1.13zm-1.76 2.17zm0-.01c0-.02.03-.08.14-.19a3.39 3.39 0 011.75-.78c.33-.04.47.02.49.04.22.16.36.45.37.81 0 .37-.12.75-.35 1-.05.06-.18.14-.42.18-.23.04-.52.02-.8-.05-.59-.14-1.04-.5-1.18-1.01zM394.04 316.86a.68.68 0 00-.09.59c.07.24.24.5.49.71.25.22.53.35.78.38.23.03.43-.03.6-.19.14-.14.2-.34.16-.61-.04-.28-.2-.6-.43-.84a1.2 1.2 0 00-.74-.4c-.2-.02-.48.04-.77.36zm2.6 2.35l-.4-.43.41.43c-.46.45-1.04.59-1.58.52a2.73 2.73 0 01-1.42-.66c-.39-.33-.71-.79-.85-1.3a1.88 1.88 0 01.33-1.69 2.14 2.14 0 011.78-.78c.6.05 1.13.37 1.52.77.38.4.66.94.74 1.5.08.55-.04 1.17-.52 1.64zm-.4-.43zM436.8 318.74c-.3.94-1.32 1.55-2.97 1.8a.6.6 0 01-.67-.48 7.08 7.08 0 01-.16-2.25c.08-.6.28-1.08.63-1.4.37-.34.82-.45 1.24-.4.4.05.8.23 1.1.48.6.46 1.13 1.33.83 2.25zm-2.57.5a4.9 4.9 0 01-.04-1.28c.06-.42.18-.6.26-.68.07-.06.16-.09.29-.07.14.01.32.08.5.22.37.3.5.69.42.95-.07.21-.37.61-1.43.86z" fill="#1C1C1C"/></svg>