<?xml version="1.0" standalone="no"?>
<!DOCTYPE svg PUBLIC "-//W3C//DTD SVG 20010904//EN"
 "http://www.w3.org/TR/2001/REC-SVG-20010904/DTD/svg10.dtd">
<svg version="1.0" xmlns="http://www.w3.org/2000/svg"
 width="238.000000pt" height="238.000000pt" viewBox="0 0 238.000000 238.000000"
 preserveAspectRatio="xMidYMid meet">
<metadata>
Created by potrace 1.14, written by Peter Selinger 2001-2017
</metadata>
<g transform="translate(0.000000,238.000000) scale(0.100000,-0.100000)"
fill="#000000" stroke="none">
<path d="M110 2213 c-103 -53 -107 -204 -6 -256 36 -19 67 -20 684 -22 611 -2
651 -4 718 -22 209 -59 381 -199 477 -388 178 -354 48 -792 -294 -989 -59 -33
-166 -76 -173 -68 -3 3 -6 1 -6 -4 0 -5 -8 -10 -17 -11 -10 0 -38 -4 -63 -8
-249 -37 -483 43 -658 224 -75 77 -124 157 -162 261 l-28 75 -147 3 -148 3 7
-41 c14 -90 100 -301 140 -343 6 -7 18 -25 26 -41 20 -40 172 -194 240 -243
245 -180 569 -242 870 -167 36 9 70 19 75 22 6 4 15 7 21 8 24 4 172 77 223
111 69 46 97 70 179 153 52 53 154 189 157 210 1 3 15 33 33 68 18 34 29 62
26 62 -4 0 -2 6 4 12 11 14 37 102 47 158 18 98 21 133 19 225 -2 86 -8 138
-28 230 -2 11 -15 54 -29 96 -63 188 -205 377 -376 503 -89 65 -227 130 -346
163 l-100 27 -665 3 c-622 3 -667 2 -700 -14z"/>
<path d="M495 1358 c-22 -5 -58 -7 -80 -5 -71 7 -142 -30 -170 -89 -28 -58
-17 -164 21 -201 20 -21 27 -12 55 77 13 41 26 77 29 80 3 3 10 14 16 25 18
33 47 29 96 -15 25 -22 56 -40 68 -40 21 0 22 4 18 49 l-5 50 28 -15 c25 -12
27 -17 19 -39 -5 -14 -7 -25 -3 -25 3 0 -2 -9 -12 -20 -10 -11 -21 -17 -25
-15 -4 3 -11 -6 -14 -19 -6 -26 5 -64 28 -98 13 -18 15 -17 39 26 33 59 49
108 52 162 3 36 -1 49 -24 72 -23 26 -54 43 -86 47 -5 1 -28 -2 -50 -7z"/>
</g>
</svg>
