<svg xmlns="http://www.w3.org/2000/svg" enable-background="new 0 0 48 48" viewBox="0 0 48 48"><circle cx="27.5" cy="27" r="20" fill="#c7d8f2"/><path fill="#384a66" d="M23,1L0.5,19.7h6.7v24.1H39V19.7h6.6L23,1z M37.5,18.2v24.1H8.6V18.2h-4L23,3l18.4,15.2H37.5z"/><path fill="#384a66" d="M33.4,32.7h-2.6v-2c0-1.5-1.2-2.7-2.7-2.7h-7.5v1.7H18v1.5h2.6v1.5h-7.9v-11h-1.5v18.5h1.5v-6h7.9v4.3h10.2
			v-4.3h2.6v6h1.5v-9.8h-1.5V32.7z M29.3,37h-7.2v-7.5h6c0.7,0,1.2,0.6,1.2,1.2V37z"/><rect width="1.7" height="1.5" x="14.6" y="29.6" fill="#384a66"/><polygon fill="#384a66" points="22.3 20.5 23.8 20.5 23.8 16.8 27.5 16.8 27.5 15.3 23.8 15.3 23.8 11.6 22.3 11.6 22.3 15.3 18.6 15.3 18.6 16.8 22.3 16.8"/></svg>