<svg xmlns="http://www.w3.org/2000/svg" enable-background="new 0 0 48 48" viewBox="0 0 48 48"><circle cx="27.4" cy="27.4" r="20" fill="#c7d8f2"/><path fill="#384a66" d="M43.1,11.7h-10v-11H10.7v11h-10v26.4h5.7v5.1h31.2v-5.1h5.7V11.7z M12.2,2.1h19.4v9.5v24.9h-4.1v-7.3H16.3v7.3
		h-4.1V11.7V2.1z M26,36.6h-8.2v-5.8H26V36.6z M2.1,36.6V13.2h8.5v23.4H6.3H2.1z M36,41.6H7.8v-3.6h2.9h1.5h4.1h11.2h4.1h1.5H36
		V41.6z M41.6,36.6h-4.2h-4.4V13.2h8.5V36.6z"/><polygon fill="#384a66" points="21.1 13.3 22.6 13.3 22.6 10.5 25.4 10.5 25.4 9 22.6 9 22.6 6.2 21.1 6.2 21.1 9 18.3 9 18.3 10.5 21.1 10.5"/><rect width="1.5" height="2.8" x="5.6" y="16.9" fill="#384a66"/><rect width="1.5" height="2.8" x="5.6" y="23.4" fill="#384a66"/><rect width="1.5" height="2.8" x="5.6" y="30" fill="#384a66"/><rect width="1.5" height="2.8" x="36.6" y="16.9" fill="#384a66"/><rect width="1.5" height="2.8" x="36.6" y="23.4" fill="#384a66"/><rect width="1.5" height="2.8" x="36.6" y="30" fill="#384a66"/><rect width="1.5" height="2.8" x="16.3" y="16.9" fill="#384a66"/><rect width="1.5" height="2.8" x="16.3" y="23.4" fill="#384a66"/><rect width="1.5" height="2.8" x="21.1" y="16.9" fill="#384a66"/><rect width="1.5" height="2.8" x="21.1" y="23.4" fill="#384a66"/><rect width="1.5" height="2.8" x="26" y="16.9" fill="#384a66"/><rect width="1.5" height="2.8" x="26" y="23.4" fill="#384a66"/></svg>